<svg xmlns="http://www.w3.org/2000/svg" xmlns:xlink="http://www.w3.org/1999/xlink" width="55" zoomAndPan="magnify" viewBox="0 0 41.25 41.250001" height="55" preserveAspectRatio="xMidYMid meet" version="1.0"><defs><clipPath id="954cd09b94"><path d="M 0 0 L 40.511719 0 L 40.511719 40.511719 L 0 40.511719 Z M 0 0 " clip-rule="nonzero"/></clipPath><clipPath id="5b968b533f"><path d="M 1 36 L 40 36 L 40 40.511719 L 1 40.511719 Z M 1 36 " clip-rule="nonzero"/></clipPath><clipPath id="1322758684"><path d="M 0 11 L 40.511719 11 L 40.511719 37 L 0 37 Z M 0 11 " clip-rule="nonzero"/></clipPath><clipPath id="1cec2922db"><path d="M 6 0 L 40.511719 0 L 40.511719 15 L 6 15 Z M 6 0 " clip-rule="nonzero"/></clipPath></defs><g clip-path="url(#954cd09b94)"><path fill="#ffffff" d="M 0 0 L 40.511719 0 L 40.511719 40.511719 L 0 40.511719 Z M 0 0 " fill-opacity="1" fill-rule="nonzero"/><path fill="#ffffff" d="M 0 0 L 40.511719 0 L 40.511719 40.511719 L 0 40.511719 Z M 0 0 " fill-opacity="1" fill-rule="nonzero"/></g><g clip-path="url(#5b968b533f)"><path fill="#000000" d="M 1.09375 38.816406 L 1.09375 39.980469 C 1.09375 40.242188 1.304688 40.449219 1.566406 40.449219 L 39.089844 40.449219 C 39.347656 40.449219 39.558594 40.242188 39.558594 39.980469 L 39.558594 38.816406 C 39.558594 37.789062 38.726562 36.957031 37.699219 36.957031 L 2.953125 36.957031 C 1.929688 36.957031 1.09375 37.789062 1.09375 38.816406 Z M 38.617188 38.816406 L 38.617188 39.511719 L 2.035156 39.511719 L 2.035156 38.816406 C 2.035156 38.308594 2.449219 37.894531 2.953125 37.894531 L 37.699219 37.894531 C 38.207031 37.894531 38.617188 38.308594 38.617188 38.816406 Z M 38.617188 38.816406 " fill-opacity="1" fill-rule="nonzero"/></g><g clip-path="url(#1322758684)"><path fill="#000000" d="M 2.167969 20.757812 L 2.695312 20.757812 L 2.695312 35.945312 C 2.695312 36.207031 2.90625 36.417969 3.164062 36.417969 C 3.425781 36.417969 3.636719 36.207031 3.636719 35.945312 L 3.636719 20.757812 L 37.019531 20.757812 L 37.019531 35.945312 C 37.019531 36.207031 37.230469 36.417969 37.488281 36.417969 C 37.75 36.417969 37.960938 36.207031 37.960938 35.945312 L 37.960938 20.757812 L 38.484375 20.757812 C 39.585938 20.757812 40.480469 19.863281 40.480469 18.761719 C 40.480469 17.660156 39.585938 16.765625 38.484375 16.765625 L 37.332031 16.765625 L 37.332031 16.253906 C 37.332031 15.605469 36.851562 15.074219 36.234375 14.980469 L 35.851562 12.191406 C 35.820312 11.960938 35.621094 11.785156 35.386719 11.785156 L 33.390625 11.785156 C 33.15625 11.785156 32.957031 11.960938 32.925781 12.191406 L 32.546875 14.980469 C 31.925781 15.074219 31.445312 15.605469 31.445312 16.253906 L 31.445312 16.765625 L 9.207031 16.765625 L 9.207031 16.253906 C 9.207031 15.605469 8.730469 15.074219 8.109375 14.980469 L 7.726562 12.191406 C 7.695312 11.960938 7.496094 11.785156 7.261719 11.785156 L 5.269531 11.785156 C 5.035156 11.785156 4.835938 11.960938 4.800781 12.191406 L 4.421875 14.980469 C 3.800781 15.074219 3.324219 15.605469 3.324219 16.253906 L 3.324219 16.765625 L 2.167969 16.765625 C 1.070312 16.765625 0.171875 17.660156 0.171875 18.761719 C 0.171875 19.863281 1.070312 20.757812 2.167969 20.757812 Z M 33.800781 12.726562 L 34.976562 12.726562 L 35.28125 14.960938 L 33.496094 14.960938 Z M 5.679688 12.726562 L 6.851562 12.726562 L 7.15625 14.960938 L 5.375 14.960938 Z M 2.167969 17.707031 C -0.703125 17.714844 35.519531 17.707031 38.484375 17.707031 C 39.066406 17.707031 39.542969 18.179688 39.542969 18.761719 C 39.542969 19.34375 39.066406 19.816406 38.484375 19.816406 C 35.648438 19.816406 -0.761719 19.804688 2.167969 19.816406 C 1.585938 19.816406 1.113281 19.34375 1.113281 18.761719 C 1.113281 18.179688 1.585938 17.707031 2.167969 17.707031 Z M 2.167969 17.707031 " fill-opacity="1" fill-rule="nonzero"/></g><path fill="#000000" d="M 21.800781 25.007812 L 19.261719 25.007812 C 19.074219 25.007812 18.902344 25.121094 18.828125 25.296875 L 16.640625 30.503906 C 16.511719 30.8125 16.738281 31.15625 17.074219 31.15625 L 18.792969 31.15625 L 18.792969 35.003906 C 18.792969 35.464844 19.386719 35.648438 19.648438 35.269531 L 23.96875 28.992188 C 24.183594 28.683594 23.957031 28.257812 23.582031 28.257812 L 21.394531 28.257812 L 22.25 25.621094 C 22.347656 25.320312 22.121094 25.007812 21.800781 25.007812 Z M 21.800781 25.007812 " fill-opacity="1" fill-rule="nonzero"/><path fill="#000000" d="M 12.550781 25.929688 C 12.550781 23.972656 10.964844 22.386719 9.007812 22.386719 C 7.050781 22.386719 5.460938 23.972656 5.460938 25.929688 C 5.460938 27.886719 7.050781 29.476562 9.007812 29.476562 C 10.964844 29.476562 12.550781 27.886719 12.550781 25.929688 Z M 8.539062 25.460938 L 8.539062 24.097656 C 8.539062 23.84375 8.742188 23.628906 9.007812 23.628906 C 9.265625 23.628906 9.476562 23.84375 9.476562 24.097656 L 9.476562 25.460938 L 10.839844 25.460938 C 11.09375 25.460938 11.308594 25.671875 11.308594 25.929688 C 11.308594 26.195312 11.09375 26.398438 10.839844 26.398438 L 9.476562 26.398438 L 9.476562 27.761719 C 9.476562 28.023438 9.265625 28.230469 9.007812 28.230469 C 8.742188 28.230469 8.539062 28.023438 8.539062 27.761719 L 8.539062 26.398438 L 7.171875 26.398438 C 6.914062 26.398438 6.699219 26.195312 6.699219 25.929688 C 6.699219 25.671875 6.914062 25.460938 7.171875 25.460938 Z M 8.539062 25.460938 " fill-opacity="1" fill-rule="nonzero"/><path fill="#000000" d="M 35.191406 25.929688 C 35.191406 23.972656 33.601562 22.386719 31.652344 22.386719 C 29.695312 22.386719 28.101562 23.972656 28.101562 25.929688 C 28.101562 27.886719 29.695312 29.476562 31.652344 29.476562 C 33.601562 29.476562 35.191406 27.886719 35.191406 25.929688 Z M 29.8125 26.398438 C 29.558594 26.398438 29.34375 26.195312 29.34375 25.929688 C 29.34375 25.671875 29.558594 25.460938 29.8125 25.460938 L 33.480469 25.460938 C 33.738281 25.460938 33.953125 25.671875 33.953125 25.929688 C 33.953125 26.195312 33.738281 26.398438 33.480469 26.398438 Z M 29.8125 26.398438 " fill-opacity="1" fill-rule="nonzero"/><path fill="#000000" d="M 26.75 15.953125 C 27.007812 15.953125 27.21875 15.742188 27.21875 15.484375 L 27.21875 14.34375 C 27.21875 13.425781 26.472656 12.679688 25.554688 12.679688 L 15.097656 12.679688 C 14.179688 12.679688 13.433594 13.425781 13.433594 14.34375 L 13.433594 15.484375 C 13.433594 15.742188 13.644531 15.953125 13.90625 15.953125 C 14.164062 15.953125 14.375 15.742188 14.375 15.484375 L 14.375 14.34375 C 14.375 13.945312 14.699219 13.621094 15.097656 13.621094 L 25.554688 13.621094 C 25.953125 13.621094 26.277344 13.945312 26.277344 14.34375 L 26.277344 15.484375 C 26.277344 15.742188 26.488281 15.953125 26.75 15.953125 Z M 26.75 15.953125 " fill-opacity="1" fill-rule="nonzero"/><g clip-path="url(#1cec2922db)"><path fill="#000000" d="M 7.34375 10.972656 C 7.519531 11.308594 8 11.308594 8.175781 10.976562 L 8.71875 9.949219 C 8.796875 9.808594 8.914062 9.726562 9.066406 9.71875 L 10.496094 9.617188 C 11.007812 9.578125 11.441406 9.269531 11.652344 8.78125 C 11.78125 8.488281 12.074219 8.441406 12.355469 8.59375 L 12.683594 8.773438 C 12.660156 9.378906 12.949219 9.953125 12.273438 10.039062 C 11.777344 10.03125 11.296875 10.28125 11.039062 10.773438 L 10.371094 12.03125 C 10.296875 12.164062 10.167969 12.246094 10.011719 12.257812 L 8.859375 12.339844 C 8.484375 12.367188 8.289062 12.808594 8.527344 13.101562 L 8.957031 13.644531 C 9.503906 14.332031 10.4375 14.605469 11.132812 14.167969 L 18.414062 9.644531 C 18.9375 9.804688 19.464844 9.496094 19.59375 8.972656 L 24.164062 5.960938 C 24.746094 5.578125 24.796875 4.742188 24.320312 4.144531 C 23.890625 3.601562 23.179688 3.441406 22.667969 3.769531 L 18.046875 6.734375 C 17.523438 6.59375 17.015625 6.90625 16.894531 7.417969 L 15.683594 7.105469 L 15.921875 5.609375 C 16.480469 5.714844 16.9375 5.335938 17.015625 4.835938 L 21.597656 1.808594 C 21.984375 1.550781 22.15625 1.074219 22.074219 0.589844 C 22.386719 0.445312 22.757812 0.394531 23.085938 0.460938 C 24.832031 0.824219 25.589844 3.132812 27.070312 4.363281 C 28.417969 5.484375 30.417969 5.777344 32.050781 5.046875 C 33.1875 4.539062 34.054688 3.605469 35.078125 3.148438 C 36.558594 2.488281 38.476562 2.914062 39.535156 4.144531 C 39.703125 4.339844 40 4.363281 40.195312 4.195312 C 40.394531 4.023438 40.414062 3.726562 40.246094 3.53125 C 38.90625 1.972656 36.570312 1.453125 34.695312 2.292969 C 33.554688 2.800781 32.6875 3.730469 31.664062 4.1875 C 30.367188 4.765625 28.761719 4.546875 27.671875 3.640625 C 26.234375 2.441406 25.523438 0.0078125 23.277344 -0.460938 C 22.730469 -0.574219 22.136719 -0.484375 21.628906 -0.238281 C 21.179688 -0.671875 20.605469 -0.710938 20.195312 -0.445312 L 15.59375 2.515625 C 15.050781 2.421875 14.566406 2.796875 14.5 3.328125 L 7.421875 8.152344 C 6.769531 8.597656 6.597656 9.546875 7.023438 10.359375 Z M 23.175781 4.5625 C 23.253906 4.511719 23.445312 4.554688 23.585938 4.730469 C 23.691406 4.859375 23.710938 4.996094 23.699219 5.078125 C 23.691406 5.125 23.671875 5.160156 23.644531 5.175781 L 19.316406 8.03125 L 18.792969 7.375 Z M 17.277344 8.492188 L 17.679688 8.996094 L 10.632812 13.371094 C 10.425781 13.503906 10.097656 13.429688 9.84375 13.214844 C 9.925781 13.191406 10.761719 13.277344 11.199219 12.476562 L 11.871094 11.210938 C 11.941406 11.074219 12.046875 10.992188 12.265625 10.980469 C 13.140625 10.96875 13.714844 10.285156 13.664062 9.445312 C 14.101562 9.554688 14.539062 9.476562 14.867188 9.21875 C 14.910156 9.1875 14.945312 9.148438 14.980469 9.109375 C 15.507812 8.703125 15.511719 8.109375 15.535156 8.039062 Z M 20.703125 0.347656 C 20.8125 0.277344 21.003906 0.417969 21.089844 0.582031 C 21.195312 0.78125 21.152344 0.972656 21.078125 1.023438 L 16.734375 3.894531 L 16.347656 3.152344 Z M 7.953125 8.929688 L 14.800781 4.261719 L 15.097656 4.824219 L 14.757812 6.949219 C 14.703125 6.964844 14.652344 6.984375 14.609375 7.019531 C 14.492188 7.109375 14.425781 7.253906 14.429688 7.402344 C 14.417969 7.980469 14.527344 8.1875 14.34375 8.410156 C 14.222656 8.46875 14.070312 8.453125 13.914062 8.367188 L 12.804688 7.765625 C 12.007812 7.335938 11.128906 7.636719 10.792969 8.40625 C 10.71875 8.570312 10.589844 8.664062 10.425781 8.675781 L 9 8.78125 C 8.089844 8.84375 7.839844 9.648438 7.777344 9.722656 C 7.679688 9.402344 7.746094 9.070312 7.953125 8.929688 Z M 7.953125 8.929688 " fill-opacity="1" fill-rule="nonzero"/></g></svg>